<?xml version="1.0" standalone="no"?>
<!DOCTYPE svg PUBLIC "-//W3C//DTD SVG 20010904//EN"
 "http://www.w3.org/TR/2001/REC-SVG-20010904/DTD/svg10.dtd">
<svg version="1.0" xmlns="http://www.w3.org/2000/svg"
 width="512.000000pt" height="512.000000pt" viewBox="0 0 512.000000 512.000000"
 preserveAspectRatio="xMidYMid meet">
<metadata>
Created by potrace 1.14, written by Peter Selinger 2001-2017
</metadata>
<g transform="translate(0.000000,512.000000) scale(0.100000,-0.100000)"
fill="#000000" stroke="none">
<path d="M0 2560 l0 -2560 2560 0 2560 0 0 2560 0 2560 -2560 0 -2560 0 0
-2560z m3102 1489 c87 -18 158 -58 224 -123 63 -64 97 -122 120 -209 63 -238
-98 -494 -344 -546 -31 -6 -156 -11 -297 -11 l-245 0 0 -75 0 -75 239 0 c131
0 262 -5 292 -10 213 -41 369 -230 369 -448 0 -67 -31 -172 -69 -230 -39 -61
-114 -133 -167 -160 -92 -47 -133 -52 -406 -52 l-258 0 0 -320 c0 -339 -5
-387 -48 -480 -33 -72 -130 -169 -204 -203 -177 -83 -377 -49 -514 87 -65 66
-105 138 -123 224 -16 75 -16 2209 0 2284 18 87 58 158 123 224 65 64 128 100
211 120 68 17 1020 19 1097 3z"/>
</g>
</svg>
